<?xml version="1.0" encoding="UTF-8" standalone="no"?>
<svg
   fill="none"
   height="114"
   width="901"
   version="1.1"
   id="svg2"
   sodipodi:docname="dark.svg"
   inkscape:version="1.4.2 (ebf0e940, 2025-05-08)"
   xmlns:inkscape="http://www.inkscape.org/namespaces/inkscape"
   xmlns:sodipodi="http://sodipodi.sourceforge.net/DTD/sodipodi-0.dtd"
   xmlns="http://www.w3.org/2000/svg"
   xmlns:svg="http://www.w3.org/2000/svg">
  <sodipodi:namedview
     id="namedview2"
     pagecolor="#ffffff"
     bordercolor="#000000"
     borderopacity="0.25"
     inkscape:showpageshadow="2"
     inkscape:pageopacity="0.0"
     inkscape:pagecheckerboard="0"
     inkscape:deskcolor="#d1d1d1"
     inkscape:zoom="0.92341842"
     inkscape:cx="449.95853"
     inkscape:cy="56.853966"
     inkscape:window-width="1728"
     inkscape:window-height="1186"
     inkscape:window-x="242"
     inkscape:window-y="52"
     inkscape:window-maximized="0"
     inkscape:current-layer="svg2" />
  <defs
     id="defs2" />
  <path
     d="M 108.634,15.978 C 96.8525,5.38536 81.8518,0.0957031 63.6185,0.0957031 45.3853,0.0957031 30.2443,5.49222 18.189,16.2919 7.54953,25.816 1.60535,37.4639 0.349725,51.2424 0.075892,54.2679 2.44021,56.886 5.47909,56.886 H 35.9681 c -0.0668,-1.6497 -0.1136,-3.326 -0.1136,-5.0492 0,-12.9035 2.2107,-22.9953 6.6255,-30.2886 4.4147,-7.2933 10.4791,-10.94 18.1932,-10.94 8.6958,0 15.8422,4.7687 21.4525,14.2995 2.4845,4.2277 4.4214,9.0031 5.8039,14.3328 2.6782,10.3255 11.8483,17.6388 22.5144,17.6388 h 15.849 c 0,-16.6837 -5.891,-30.322 -17.666,-40.908 z"
     id="path1"
     style="fill:#ffffff" />
  <path
     d="m 53.6204,97.7728 c 11.7815,10.5932 26.7822,15.8822 45.0155,15.8822 18.2331,0 33.3741,-5.396 45.4301,-16.1961 10.639,-9.524 16.583,-21.1719 17.839,-34.9504 0.274,-3.0255 -2.091,-5.6437 -5.13,-5.6437 h -30.489 c 0.067,1.6497 0.114,3.3261 0.114,5.0493 0,12.9035 -2.211,22.9953 -6.625,30.2886 -4.415,7.2933 -10.48,10.9403 -18.194,10.9403 -8.6956,0 -15.842,-4.7691 -21.4522,-14.2998 C 77.6443,84.6155 75.7074,79.8401 74.3249,74.5104 71.6467,64.1849 62.4766,56.8715 51.8105,56.8715 h -15.849 c 0,16.6838 5.8908,30.322 17.6656,40.908 z M 200.95,108.509 v -3.083 l 2.349,-0.734 c 2.056,-0.783 3.426,-1.811 4.112,-3.084 0.783,-1.272 1.174,-2.9852 1.174,-5.1387 0.098,-5.5795 0.147,-11.159 0.147,-16.7386 V 57.4126 c 0,-5.6775 -0.049,-11.3059 -0.147,-16.8855 V 23.4948 c 0,-2.3492 -0.342,-4.1112 -1.028,-5.2858 -0.685,-1.2725 -2.104,-2.2514 -4.258,-2.9366 l -2.349,-0.7342 v -3.0834 h 41.406 c 11.746,0 20.263,2.2024 25.549,6.6073 5.285,4.3071 7.928,9.7887 7.928,16.445 0,5.0901 -1.86,9.6908 -5.579,13.802 -3.72,4.0134 -10.229,6.901 -19.529,8.663 10.768,1.1746 18.55,3.9644 23.346,8.3693 4.797,4.4049 7.195,9.7886 7.195,16.1513 0,3.1324 -0.685,6.3137 -2.056,9.5439 -1.37,3.1324 -3.719,6.0201 -7.047,8.663 -3.231,2.6434 -7.636,4.7964 -13.215,6.4604 -5.58,1.566 -12.627,2.349 -21.144,2.349 z m 28.632,-52.5647 h 6.901 c 6.656,0 11.453,-1.4683 14.389,-4.4049 3.035,-3.0345 4.552,-8.1736 4.552,-15.4172 0,-7.5372 -1.37,-12.8231 -4.111,-15.8576 -2.741,-3.0345 -7.048,-4.5517 -12.921,-4.5517 h -8.81 z m 0,48.3067 h 8.076 c 7.341,0 12.823,-1.811 16.444,-5.4324 3.622,-3.6218 5.433,-9.446 5.433,-17.4727 0,-7.7331 -1.762,-13.1658 -5.286,-16.2982 -3.426,-3.2302 -9.103,-4.8454 -17.032,-4.8454 h -7.635 z m 101.552,6.314 c -7.243,0 -13.606,-1.517 -19.088,-4.552 -5.383,-3.034 -9.592,-7.3412 -12.627,-12.9208 -2.937,-5.5795 -4.405,-12.2358 -4.405,-19.9688 0,-7.7331 1.566,-14.3894 4.699,-19.9689 3.23,-5.5795 7.537,-9.8376 12.921,-12.7742 5.481,-3.0345 11.648,-4.5517 18.5,-4.5517 6.852,0 12.97,1.5172 18.354,4.5517 5.482,2.9366 9.789,7.1947 12.921,12.7742 3.23,5.4817 4.845,12.1379 4.845,19.9689 0,7.733 -1.517,14.4383 -4.551,20.1157 -2.937,5.5795 -7.097,9.8869 -12.481,12.9209 -5.384,2.937 -11.746,4.405 -19.088,4.405 z m 0,-4.111 c 3.524,0 6.363,-0.93 8.516,-2.79 2.252,-1.958 3.867,-5.3348 4.846,-10.1313 0.979,-4.7964 1.468,-11.5016 1.468,-20.1157 0,-8.7119 -0.489,-15.4661 -1.468,-20.2625 -0.979,-4.8943 -2.594,-8.2714 -4.846,-10.1313 -2.153,-1.9577 -4.992,-2.9366 -8.516,-2.9366 -3.524,0 -6.362,0.9789 -8.516,2.9366 -2.153,1.8599 -3.768,5.237 -4.845,10.1313 -0.979,4.7964 -1.469,11.5506 -1.469,20.2625 0,8.6141 0.49,15.3193 1.469,20.1157 1.077,4.7965 2.692,8.1733 4.845,10.1313 2.154,1.86 4.992,2.79 8.516,2.79 z m 74.312,4.111 c -3.817,0 -7.292,-0.685 -10.425,-2.056 -3.132,-1.468 -5.628,-3.817 -7.488,-7.047 -1.762,-3.3286 -2.594,-7.6845 -2.496,-13.0683 l 0.44,-36.8543 c 0,-2.1535 -0.342,-3.7197 -1.027,-4.6986 -0.686,-0.9789 -1.909,-1.6641 -3.671,-2.0556 l -1.762,-0.5873 v -2.643 l 25.108,-4.8453 1.615,1.6151 -0.734,20.703 v 33.3304 c 0,3.3281 0.881,5.7753 2.643,7.3415 1.86,1.4684 4.16,2.2024 6.901,2.2024 2.839,0 5.384,-0.392 7.635,-1.175 2.349,-0.8806 4.747,-2.1531 7.195,-3.8172 l 0.44,-45.2236 c 0,-2.2514 -0.343,-3.8176 -1.028,-4.6986 -0.587,-0.8809 -1.762,-1.5661 -3.524,-2.0556 l -1.615,-0.4405 v -2.6429 l 24.521,-5.139 1.615,1.6151 -0.441,20.703 v 38.4694 c 0,2.0557 0.245,3.7199 0.735,4.9919 0.587,1.175 1.811,2.056 3.67,2.643 l 1.909,0.588 v 2.789 l -24.814,1.469 -1.322,-9.251 c -3.328,2.839 -6.95,5.188 -10.865,7.048 -3.915,1.86 -8.32,2.79 -13.215,2.79 z m 62.039,-2.056 v -2.789 l 2.35,-0.588 c 3.23,-0.979 4.845,-3.377 4.845,-7.1944 V 54.6228 c -0.098,-2.0556 -0.44,-3.6218 -1.028,-4.6986 -0.587,-1.1746 -1.86,-1.9577 -3.817,-2.3492 l -2.35,-0.5874 v -2.6429 l 23.787,-8.5161 1.762,1.6151 1.028,9.1035 c 3.524,-3.1324 7.439,-5.6775 11.746,-7.6352 4.405,-2.0556 8.712,-3.0834 12.921,-3.0834 6.461,0 11.404,1.7619 14.83,5.2858 3.524,3.524 5.286,8.9077 5.286,16.1513 v 40.8188 c 0,3.8175 1.762,6.2155 5.286,7.1945 l 1.615,0.441 v 2.789 h -33.771 v -2.789 l 2.202,-0.588 c 3.231,-1.076 4.846,-3.475 4.846,-7.1944 V 54.3291 c 0,-3.426 -0.734,-5.9221 -2.203,-7.4883 -1.468,-1.5662 -3.915,-2.3493 -7.341,-2.3493 -4.797,0 -9.789,2.1046 -14.977,6.3137 v 47.2793 c 0,3.8175 1.713,6.2155 5.139,7.1945 l 1.468,0.441 v 2.789 z m 121.02,2.056 c -5.775,0 -10.963,-1.273 -15.564,-3.818 -4.6,-2.643 -8.222,-6.656 -10.865,-12.0396 -2.545,-5.4817 -3.818,-12.4316 -3.818,-20.8499 0,-8.4182 1.469,-15.4171 4.405,-20.9967 2.937,-5.6774 6.852,-9.9355 11.747,-12.7742 4.894,-2.8387 10.278,-4.258 16.151,-4.258 3.524,0 6.901,0.4405 10.131,1.3214 3.231,0.7831 6.069,2.0067 8.516,3.6708 V 21.7329 c 0,-2.0556 -0.342,-3.5239 -1.027,-4.4049 -0.588,-0.9789 -1.86,-1.713 -3.818,-2.2025 l -2.937,-0.5873 v -2.7897 l 25.549,-6.31373 1.909,1.32147 -0.588,20.70306 v 70.6252 c 0,1.8598 0.343,3.4265 1.028,4.6985 0.685,1.175 1.909,2.007 3.671,2.496 l 1.615,0.441 v 2.789 l -24.374,1.616 -1.321,-6.167 c -2.643,2.055 -5.678,3.67 -9.104,4.845 -3.426,1.175 -7.194,1.762 -11.306,1.762 z m 8.076,-6.754 c 4.209,0 8.174,-1.371 11.893,-4.1114 V 45.0789 c -3.622,-2.2514 -7.537,-3.3771 -11.746,-3.3771 -4.797,0 -8.908,2.545 -12.334,7.6351 -3.426,4.9922 -5.139,13.0679 -5.139,24.227 0,11.159 1.615,18.99 4.845,23.4927 3.231,4.5024 7.391,6.7544 12.481,6.7544 z m 50.853,4.698 v -2.789 l 2.202,-0.588 c 3.23,-1.076 4.845,-3.524 4.845,-7.3412 v -9.9844 c 0.098,-3.4261 0.147,-6.8032 0.147,-10.1313 V 21.8797 c 0,-2.0556 -0.342,-3.5728 -1.028,-4.5517 -0.685,-1.0768 -2.006,-1.8598 -3.964,-2.3493 l -2.202,-0.5873 v -2.7898 l 25.695,-6.16683 1.909,1.32147 -0.588,20.70306 v 70.3315 c 0.098,1.9577 0.49,3.5732 1.175,4.8452 0.783,1.175 2.104,2.007 3.964,2.496 l 2.056,0.588 v 2.789 z m 83.439,-72.6804 c 6.167,0 11.453,1.2725 15.858,3.8175 4.405,2.5451 7.782,6.069 10.131,10.5718 2.447,4.4049 3.671,9.495 3.671,15.2703 0,1.2725 -0.049,2.4961 -0.147,3.6708 -0.098,1.0767 -0.294,2.1045 -0.587,3.0834 h -44.196 c 0.098,10.0823 1.957,17.3259 5.579,21.7308 3.72,4.4049 9.104,6.6078 16.152,6.6078 4.894,0 8.858,-0.7835 11.893,-2.3497 3.034,-1.6641 5.824,-3.9644 8.369,-6.901 l 2.349,2.2024 c -2.936,5.3838 -6.95,9.5933 -12.04,12.6273 -4.992,2.937 -10.963,4.405 -17.913,4.405 -6.95,0 -13.068,-1.468 -18.354,-4.405 -5.286,-2.936 -9.446,-7.1456 -12.48,-12.6273 -2.937,-5.5795 -4.405,-12.2358 -4.405,-19.9688 0,-8.0267 1.713,-14.8299 5.139,-20.4094 3.524,-5.5795 8.027,-9.8376 13.508,-12.7742 5.58,-3.0345 11.404,-4.5517 17.473,-4.5517 z m -0.734,4.258 c -2.839,0 -5.335,0.8321 -7.488,2.4961 -2.056,1.5662 -3.72,4.4049 -4.993,8.5162 -1.174,4.0133 -1.859,9.6908 -2.055,17.0323 h 26.282 c 1.077,-9.8866 0.686,-17.0323 -1.174,-21.4372 -1.86,-4.4049 -5.384,-6.6074 -10.572,-6.6074 z m 69.147,70.4784 c -4.699,0 -8.957,-0.538 -12.775,-1.615 -3.719,-0.979 -7.292,-2.398 -10.718,-4.258 V 87.3659 h 3.964 l 4.405,8.3693 c 1.86,3.6218 3.964,6.3138 6.314,8.0758 2.447,1.762 5.53,2.643 9.25,2.643 4.601,0 8.271,-0.979 11.012,-2.937 2.741,-2.055 4.111,-4.7963 4.111,-8.2223 0,-3.1324 -1.027,-5.6774 -3.083,-7.6352 -2.056,-1.9577 -5.726,-3.7686 -11.012,-5.4327 l -6.461,-2.0556 c -5.775,-1.762 -10.376,-4.4049 -13.802,-7.9288 -3.328,-3.6218 -4.992,-8.1246 -4.992,-13.5084 0,-4.2091 1.126,-8.0267 3.377,-11.4527 2.252,-3.5239 5.531,-6.3137 9.838,-8.3693 4.307,-2.0556 9.544,-3.0834 15.711,-3.0834 4.013,0 7.684,0.4894 11.012,1.4683 3.426,0.8809 6.754,2.1535 9.984,3.8175 l -0.881,15.7108 h -3.817 l -4.552,-8.3693 c -1.566,-3.1323 -3.181,-5.2858 -4.845,-6.4605 -1.567,-1.2725 -4.014,-1.9088 -7.342,-1.9088 -3.524,0 -6.656,0.93 -9.397,2.7898 -2.643,1.762 -3.964,4.2581 -3.964,7.4883 0,3.0345 1.125,5.5306 3.377,7.4884 2.251,1.8598 5.873,3.6218 10.865,5.2858 l 6.314,1.9088 c 7.145,2.2514 12.236,5.237 15.27,8.9567 3.035,3.7196 4.552,8.1735 4.552,13.3615 0,6.9499 -2.79,12.5784 -8.37,16.8851 -5.481,4.209 -13.263,6.314 -23.345,6.314 z m 69.681,0 c -4.699,0 -8.957,-0.538 -12.775,-1.615 -3.719,-0.979 -7.292,-2.398 -10.718,-4.258 V 87.3659 h 3.964 l 4.405,8.3693 c 1.86,3.6218 3.965,6.3138 6.314,8.0758 2.447,1.762 5.53,2.643 9.25,2.643 4.601,0 8.272,-0.979 11.012,-2.937 2.741,-2.055 4.112,-4.7963 4.112,-8.2223 0,-3.1324 -1.028,-5.6774 -3.084,-7.6352 -2.055,-1.9577 -5.726,-3.7686 -11.012,-5.4327 l -6.46,-2.0556 c -5.776,-1.762 -10.377,-4.4049 -13.803,-7.9288 -3.328,-3.6218 -4.992,-8.1246 -4.992,-13.5084 0,-4.2091 1.126,-8.0267 3.377,-11.4527 2.252,-3.5239 5.531,-6.3137 9.838,-8.3693 4.307,-2.0556 9.544,-3.0834 15.711,-3.0834 4.013,0 7.684,0.4894 11.012,1.4683 3.426,0.8809 6.754,2.1535 9.984,3.8175 l -0.881,15.7108 h -3.817 l -4.552,-8.3693 c -1.566,-3.1323 -3.181,-5.2858 -4.845,-6.4605 -1.566,-1.2725 -4.014,-1.9088 -7.342,-1.9088 -3.524,0 -6.656,0.93 -9.397,2.7898 -2.643,1.762 -3.964,4.2581 -3.964,7.4883 0,3.0345 1.125,5.5306 3.377,7.4884 2.251,1.8598 5.873,3.6218 10.865,5.2858 l 6.314,1.9088 c 7.146,2.2514 12.236,5.237 15.27,8.9567 3.035,3.7196 4.552,8.1735 4.552,13.3615 0,6.9499 -2.79,12.5784 -8.369,16.8851 -5.482,4.209 -13.264,6.314 -23.346,6.314 z"
     id="path2"
     style="fill:#ffffff" />
</svg>
